Coordinates
version=1
nRows=16
nColumns=63
inDegrees=yes

Units are S.I. units (second, meters, Newtons, ...)
If the header above contains a line with 'inDegrees', this indicates whether rotational values are in degrees (yes) or radians (no).

endheader
time	pelvis_tilt	pelvis_list	pelvis_rotation	pelvis_tx	pelvis_ty	pelvis_tz	hip_flexion_r	hip_adduction_r	hip_rotation_r	knee_angle_r	knee_angle_r_beta	ankle_angle_r	subtalar_angle_r	mtp_angle_r	hip_flexion_l	hip_adduction_l	hip_rotation_l	knee_angle_l	knee_angle_l_beta	ankle_angle_l	subtalar_angle_l	mtp_angle_l	L5_S1_Flex_Ext	L5_S1_Lat_Bending	L5_S1_axial_rotation	L4_L5_Flex_Ext	L4_L5_Lat_Bending	L4_L5_axial_rotation	L3_L4_Flex_Ext	L3_L4_Lat_Bending	L3_L4_axial_rotation	L2_L3_Flex_Ext	L2_L3_Lat_Bending	L2_L3_axial_rotation	L1_L2_Flex_Ext	L1_L2_Lat_Bending	L1_L2_axial_rotation	L1_T12_Flex_Ext	L1_T12_Lat_Bending	L1_T12_axial_rotation	Abs_r3	Abs_r2	Abs_r1	Abs_t1	Abs_t2	neck_flexion	neck_bending	neck_rotation	arm_flex_r	arm_add_r	arm_rot_r	elbow_flex_r	pro_sup_r	wrist_flex_r	wrist_dev_r	arm_flex_l	arm_add_l	arm_rot_l	elbow_flex_l	pro_sup_l	wrist_flex_l	wrist_dev_l
0.000000	-2.568234	-2.705805	83.456353	0.260938	0.920836	0.629805	3.393688	-3.841451	-2.237838	9.889983	0.172613	34.287179	6.689427	0.000000	3.928836	4.361049	-2.896883	12.621363	0.220284	32.041311	-6.516686	0.000000	0.260620	-0.362750	2.222675	0.483998	-0.482457	2.361592	0.428173	-0.881990	2.361592	0.297863	-0.881990	1.944841	0.242012	-0.739719	1.805923	0.148918	-0.561899	1.667006	1.861583	-4.103497	12.361851	0.000000	0.000000	20.796888	-1.420631	-22.369468	7.194646	-8.406784	49.677009	37.842817	54.461955	8.127267	12.483758	24.546461	-9.559842	89.061431	42.569896	44.196594	9.992643	-2.990819
0.018519	-2.952117	-2.662888	83.615807	0.261124	0.919864	0.629991	3.223169	-4.314087	-3.647068	9.844516	0.171819	34.730307	8.178868	0.000000	3.907823	4.771026	-2.543634	12.533676	0.218754	32.094133	-6.730570	0.000000	0.249594	-0.414535	2.230838	0.463522	-0.551331	2.370265	0.410059	-1.007900	2.370265	0.285262	-1.007900	1.951983	0.231773	-0.845319	1.812556	0.142618	-0.642114	1.673128	1.782828	-4.689301	12.407251	0.000000	0.000000	20.946092	-1.325249	-22.476673	7.325721	-8.290581	49.303525	38.157924	54.799309	8.429598	12.357318	24.908228	-9.988418	88.928024	43.337957	44.492728	10.519182	-1.754978
0.037037	-3.282014	-2.633219	83.708229	0.261357	0.919021	0.630243	3.109018	-4.717762	-4.810770	9.844529	0.171819	35.083521	9.473802	0.000000	3.908319	5.108211	-2.365796	12.456683	0.217410	32.179003	-6.810123	0.000000	0.239997	-0.459242	2.246602	0.445699	-0.610792	2.387014	0.394291	-1.116602	2.387014	0.274293	-1.116602	1.965777	0.222861	-0.936487	1.825364	0.137134	-0.711366	1.684951	1.714276	-5.195041	12.494925	0.000000	0.000000	21.088554	-1.243824	-22.581351	7.384638	-8.179463	48.799008	38.474843	55.400159	8.671899	12.238356	25.232642	-10.346206	88.897861	43.989484	44.663895	10.848619	-0.802169
0.055556	-3.560678	-2.615476	83.741018	0.261630	0.918302	0.630551	3.045361	-5.056093	-5.745588	9.884225	0.172512	35.354532	10.582696	0.000000	3.927488	5.377585	-2.342957	12.390090	0.216248	32.290774	-6.770972	0.000000	0.231753	-0.497205	2.268881	0.430389	-0.661283	2.410686	0.380748	-1.208905	2.410686	0.264871	-1.208905	1.985271	0.215206	-1.013901	1.843466	0.132424	-0.770171	1.701660	1.655392	-5.624484	12.618834	0.000000	0.000000	21.223649	-1.175826	-22.682004	7.379642	-8.073999	48.184514	38.789613	56.224313	8.859603	12.128274	25.521189	-10.638025	88.958648	44.532659	44.722667	11.001014	-0.105955
0.074074	-3.790862	-2.608335	83.721575	0.261934	0.917697	0.630903	3.026326	-5.332697	-6.468169	9.957805	0.173796	35.551056	11.514018	0.000000	3.962496	5.584129	-2.454705	12.333600	0.215262	32.424301	-6.628748	0.000000	0.224789	-0.528756	2.296589	0.417455	-0.703246	2.440125	0.369305	-1.285618	2.440125	0.256911	-1.285618	2.009515	0.208739	-1.078240	1.865978	0.128444	-0.819044	1.722441	1.605642	-5.981398	12.772937	0.000000	0.000000	21.350754	-1.120728	-22.777131	7.318979	-7.974757	47.481102	39.098277	57.231575	8.998143	12.028477	25.775354	-10.868695	89.098092	44.975663	44.681619	10.996424	0.360100
0.092593	-3.975319	-2.610474	83.657302	0.262260	0.917201	0.631288	3.046038	-5.551192	-6.995156	10.059470	0.175571	35.680806	12.276234	0.000000	4.010506	5.732826	-2.680630	12.286919	0.214447	32.574440	-6.399078	0.000000	0.219028	-0.554229	2.328639	0.406756	-0.737125	2.474179	0.359841	-1.347553	2.474179	0.250327	-1.347553	2.037560	0.203389	-1.130184	1.892020	0.125152	-0.858501	1.746480	1.564493	-6.269551	12.951194	0.000000	0.000000	21.469243	-1.078001	-22.865234	7.210895	-7.882306	46.709830	39.396874	58.381751	9.092951	11.940366	25.996623	-11.043037	89.303896	45.326677	44.553322	10.854907	0.622433
0.111111	-4.116800	-2.620569	83.555600	0.262600	0.916805	0.631697	3.098626	-5.715193	-7.343194	10.183423	0.177734	35.751495	12.877812	0.000000	4.068685	5.828655	-3.000320	12.249751	0.213798	32.736043	-6.097593	0.000000	0.214396	-0.573956	2.363947	0.398155	-0.763362	2.511694	0.352231	-1.395518	2.511694	0.245033	-1.395518	2.068454	0.199088	-1.170412	1.920707	0.122506	-0.889059	1.772961	1.531409	-6.492710	13.147566	0.000000	0.000000	21.578494	-1.047118	-22.944814	7.063636	-7.797214	45.891756	39.681446	59.634647	9.149459	11.865344	26.186481	-11.165872	89.563769	45.593885	44.350351	10.596522	0.707478
0.129630	-4.218059	-2.637298	83.423871	0.262944	0.916502	0.632117	3.178215	-5.828319	-7.528927	10.323865	0.180185	35.770839	13.327220	0.000000	4.134197	5.876599	-3.393363	12.221801	0.213311	32.903966	-5.739919	0.000000	0.210819	-0.588271	2.401426	0.391511	-0.782401	2.551516	0.346354	-1.430323	2.551516	0.240945	-1.430323	2.101248	0.195766	-1.199603	1.951159	0.120462	-0.911232	1.801070	1.505856	-6.654642	13.356013	0.000000	0.000000	21.677882	-1.027551	-23.014370	6.885447	-7.720051	45.047937	39.948032	60.950070	9.173100	11.804815	26.346415	-11.242019	89.865414	45.785467	44.085277	10.241326	0.641673
0.148148	-4.281849	-2.659338	83.269514	0.263284	0.916284	0.632538	3.278933	-5.894186	-7.569001	10.474998	0.182823	35.746551	13.632923	0.000000	4.204206	5.881638	-3.839349	12.202773	0.212979	33.073064	-5.341687	0.000000	0.208221	-0.597507	2.439990	0.386687	-0.794684	2.592490	0.342086	-1.452778	2.592490	0.237976	-1.452778	2.134992	0.193354	-1.218436	1.982492	0.118977	-0.925538	1.829993	1.487301	-6.759116	13.570494	0.000000	0.000000	21.766784	-1.018770	-23.072404	6.684574	-7.651384	44.199432	40.192674	62.287823	9.169307	11.760182	26.477909	-11.276299	90.196539	45.909605	43.770675	9.809378	0.451453
0.166667	-4.310922	-2.685365	83.099931	0.263612	0.916144	0.632950	3.394907	-5.916412	-7.480060	10.631024	0.185546	35.686343	13.803390	0.000000	4.275878	5.848754	-4.317866	12.192373	0.212797	33.238190	-4.918525	0.000000	0.206528	-0.601996	2.478553	0.383543	-0.800655	2.633463	0.339305	-1.463693	2.633463	0.236041	-1.463693	2.168734	0.191782	-1.227590	2.013825	0.118010	-0.932492	1.858915	1.475209	-6.809898	13.784970	0.000000	0.000000	21.844574	-1.020248	-23.117417	6.469264	-7.591783	43.367299	40.411413	63.607714	9.143511	11.732847	26.582449	-11.273533	90.544849	45.974482	43.419118	9.320736	0.163254
0.185185	-4.308031	-2.714057	82.922523	0.263919	0.916075	0.633342	3.520263	-5.898613	-7.278749	10.786145	0.188254	35.597932	13.847087	0.000000	4.346379	5.782928	-4.808502	12.190305	0.212761	33.394198	-4.486062	0.000000	0.205665	-0.602072	2.516030	0.381941	-0.800755	2.673281	0.337887	-1.463877	2.673281	0.235055	-1.463877	2.201526	0.190981	-1.227745	2.044274	0.117517	-0.932609	1.887022	1.469047	-6.810756	13.993401	0.000000	0.000000	21.910629	-1.031456	-23.147908	6.247761	-7.541816	42.572595	40.600289	64.869548	9.101145	11.724214	26.661521	-11.238540	90.898049	45.988278	43.043178	8.795459	-0.196487
0.203704	-4.291597	-2.736870	82.776691	0.264177	0.916083	0.633677	3.638548	-5.870154	-7.127323	10.947840	0.191076	35.514585	13.897843	0.000000	4.406639	5.704419	-5.289769	12.195033	0.212843	33.549356	-4.019108	0.000000	0.205235	-0.600210	2.548769	0.381142	-0.798279	2.708067	0.337181	-1.459350	2.708067	0.234563	-1.459350	2.230173	0.190581	-1.223948	2.070875	0.117271	-0.929725	1.911577	1.465973	-6.789693	14.175488	0.000000	0.000000	21.949261	-1.012072	-23.109745	6.044156	-7.499435	41.884605	40.718833	66.019798	9.094250	11.707077	26.751547	-11.204593	91.266747	46.037406	42.694990	8.180022	-0.505406
0.222222	-4.232559	-2.755217	82.631052	0.264364	0.916156	0.633942	3.739411	-5.787473	-6.817539	11.076114	0.193315	35.401124	13.754559	0.000000	4.447127	5.594459	-5.691007	12.207639	0.213063	33.665502	-3.632029	0.000000	0.204558	-0.592068	2.577713	0.379885	-0.787451	2.738820	0.336069	-1.439555	2.738820	0.233790	-1.439555	2.255499	0.189953	-1.207346	2.094392	0.116885	-0.917114	1.933285	1.461139	-6.697597	14.336468	0.000000	0.000000	21.980092	-1.030991	-23.078479	5.853774	-7.473573	41.300543	40.787282	66.923028	9.070497	11.751514	26.795772	-11.120646	91.574044	45.994756	42.336837	7.660030	-0.836966
0.240741	-4.135427	-2.796808	82.503081	0.264519	0.916249	0.634160	3.857793	-5.652972	-6.398928	11.184745	0.195211	35.282476	13.461843	0.000000	4.518490	5.425981	-6.212016	12.272477	0.214195	33.818809	-3.038172	0.000000	0.208495	-0.578635	2.599010	0.387196	-0.769584	2.761448	0.342536	-1.406893	2.761448	0.238289	-1.406893	2.274134	0.193608	-1.179952	2.111696	0.119134	-0.896305	1.949258	1.489259	-6.545633	14.454916	0.000000	0.000000	22.004040	-1.064176	-22.995301	5.689250	-7.446033	40.847555	40.790734	67.543032	9.018262	11.865156	26.787294	-11.000325	91.779100	45.859227	42.000061	7.314735	-1.120372
0.259259	-4.014288	-2.823078	82.388824	0.264606	0.916388	0.634303	3.939790	-5.480414	-5.811248	11.241333	0.196198	35.145218	12.919263	0.000000	4.554448	5.258914	-6.540264	12.330074	0.215200	33.894115	-2.678897	0.000000	0.210713	-0.561525	2.615286	0.391315	-0.746829	2.778742	0.346181	-1.365293	2.778742	0.240824	-1.365293	2.288375	0.195668	-1.145062	2.124920	0.120401	-0.869803	1.961465	1.505103	-6.352086	14.545437	0.000000	0.000000	22.017812	-1.126090	-22.917503	5.558085	-7.448700	40.552335	40.777737	67.843111	8.944259	12.014847	26.752690	-10.862631	91.934883	45.691618	41.685438	7.029869	-1.432381
0.277778	-3.879584	-2.835479	82.292712	0.264656	0.916561	0.634374	3.987204	-5.282951	-5.086197	11.244170	0.196248	35.015184	12.174074	0.000000	4.552047	5.100983	-6.677369	12.365737	0.215823	33.877999	-2.548334	0.000000	0.211322	-0.542780	2.626190	0.392447	-0.721898	2.790327	0.347181	-1.319716	2.790327	0.241520	-1.319716	2.297916	0.196234	-1.106838	2.133780	0.120750	-0.840767	1.969643	1.509454	-6.140039	14.606082	0.000000	0.000000	22.032335	-1.201502	-22.861712	5.466978	-7.473948	40.420371	40.754897	67.817208	8.852599	12.181709	26.700912	-10.733367	92.044578	45.528764	41.411574	6.804290	-1.744510
